<svg xmlns="http://www.w3.org/2000/svg" xmlns:xlink="http://www.w3.org/1999/xlink"><symbol id="sprite-account" fill="none" viewBox="0 0 20 20"><path fill="#202020" d="M10 11.65a5.84 5.84 0 0 0 5.83-5.83 5.84 5.84 0 0 0-5.84-5.83 5.84 5.84 0 0 0-5.83 5.83 5.84 5.84 0 0 0 5.83 5.83m0-10c2.3 0 4.17 1.87 4.17 4.17a4.17 4.17 0 0 1-8.33 0 4.17 4.17 0 0 1 4.16-4.16m5 10.83h-10a4.17 4.17 0 0 0-4.16 4.16v3.34h1.66v-3.34a2.5 2.5 0 0 1 2.5-2.5h10a2.5 2.5 0 0 1 2.5 2.5v3.34h1.67v-3.34a4.17 4.17 0 0 0-4.17-4.17"/></symbol><use xlink:href="#sprite-account" width="20" height="20"/><view id="sprite-account-view" viewBox="0 0 20 20"/><symbol id="sprite-arrow-up" fill="none" viewBox="0 0 24 24"><path fill="#202020" d="m2 15.5 10-10.5 1.43 1.5-10 10.5z"/><path fill="#202020" d="m20.57 17-10-10.5 1.43-1.5 10 10.5z"/></symbol><use xlink:href="#sprite-arrow-up" width="24" height="24" y="20"/><view id="sprite-arrow-up-view" viewBox="0 20 24 24"/><symbol id="sprite-basket" fill="none" viewBox="0 0 20 20"><path fill="#202020" d="M6.66 15a2.5 2.5 0 0 0-2.5 2.5 2.5 2.5 0 0 0 2.5 2.5 2.5 2.5 0 0 0 2.5-2.5 2.5 2.5 0 0 0-2.5-2.5m0 3.33a.84.84 0 0 1-.83-.83.83.83 0 0 1 1.67 0 .84.84 0 0 1-.84.83m8.33-3.33a2.5 2.5 0 0 0-2.5 2.5 2.5 2.5 0 0 0 2.5 2.5 2.5 2.5 0 0 0 2.5-2.5 2.5 2.5 0 0 0-2.5-2.5m0 3.33a.84.84 0 0 1-.83-.83.84.84 0 0 1 1.67 0 .84.84 0 0 1-.84.83m-10.92-18.33h-3.24v1.67h1.77l1.67 12.5h13.22v-1.67h-11.76l-.1-.83h11.91l1.63-8.34h-14.66zm13.07 5-.97 5h-10.77l-.67-5z"/></symbol><use xlink:href="#sprite-basket" width="20" height="20" y="44"/><view id="sprite-basket-view" viewBox="0 44 20 20"/><symbol id="sprite-heart-fill" fill="none" viewBox="0 0 20 20"><path fill="#202020" d="m11.08 2.85-1.09 1.1-1.1-1.1a5.2 5.2 0 0 0-3.68-1.52 5.2 5.2 0 0 0-3.68 1.51 5 5 0 0 0-1.53 3.64c0 1.37.54 2.67 1.53 3.64l8.47 8.55 8.47-8.55a5 5 0 0 0 1.53-3.64 5 5 0 0 0-1.53-3.65 5.3 5.3 0 0 0-7.39 0z"/></symbol><use xlink:href="#sprite-heart-fill" width="20" height="20" y="64"/><view id="sprite-heart-fill-view" viewBox="0 64 20 20"/><symbol id="sprite-heart" fill="none" viewBox="0 0 20 20"><path fill="#202020" d="m11.08 3.2-1.09 1.11-1.1-1.12a5.2 5.2 0 0 0-3.68-1.52 5.2 5.2 0 0 0-3.68 1.52 5.2 5.2 0 0 0-1.53 3.68 5 5 0 0 0 1.53 3.66l8.47 8.64 8.47-8.64a5.2 5.2 0 0 0 1.53-3.67 5.2 5.2 0 0 0-1.53-3.67 5.25 5.25 0 0 0-7.39 0zm6.2 6.18-7.29 7.42-7.29-7.43a3.5 3.5 0 0 1-1.04-2.5 3.5 3.5 0 0 1 1.04-2.5 3.5 3.5 0 0 1 2.51-1.03c.95 0 1.85.36 2.5 1.02l2.28 2.34 2.28-2.33a3.56 3.56 0 0 1 5.02 0 3.5 3.5 0 0 1 1.04 2.5 3.5 3.5 0 0 1-1.04 2.5z"/></symbol><use xlink:href="#sprite-heart" width="20" height="20" y="84"/><view id="sprite-heart-view" viewBox="0 84 20 20"/><symbol id="sprite-moon" fill="none" viewBox="0 0 20 20"><path fill="#202020" d="M18.3 17v-1.17l-2.63.03a5.85 5.85 0 0 1 0-11.7h2.64v-1.58a10 10 0 0 0-6.69-2.58 10 10 0 0 0 0 20c2.48 0 4.84-.92 6.68-2.6zm-6.67 1.33a8.34 8.34 0 0 1 0-16.66c1.26 0 2.5.29 3.63.84a7.5 7.5 0 0 0-7.09 7.5 7.5 7.5 0 0 0 7.04 7.5 8 8 0 0 1-3.59.82z"/></symbol><use xlink:href="#sprite-moon" width="20" height="20" y="104"/><view id="sprite-moon-view" viewBox="0 104 20 20"/><symbol id="sprite-search" fill="none" viewBox="0 0 20 20"><path fill="#202020" d="M13.33 0a6.7 6.7 0 0 0-6.67 6.67 6.6 6.6 0 0 0 1.41 4.09l-8.07 8.07 1.18 1.17 8.07-8.07a6.7 6.7 0 0 0 4.08 1.4 6.7 6.7 0 0 0 6.67-6.66 6.7 6.7 0 0 0-6.67-6.67m0 11.67a5 5 0 0 1-5-5 5 5 0 0 1 5-5 5 5 0 0 1 5 5 5 5 0 0 1-5 5"/></symbol><use xlink:href="#sprite-search" width="20" height="20" y="124"/><view id="sprite-search-view" viewBox="0 124 20 20"/><symbol id="sprite-sun" fill="none" viewBox="0 0 20 20"><path fill="#fff" d="M10.83 0h-1.66v2.55a7.4 7.4 0 0 0-3.84 1.6l-1.81-1.8-1.18 1.17 1.81 1.8a7.5 7.5 0 0 0-1.6 3.85h-2.55v1.66h2.55a7.4 7.4 0 0 0 1.6 3.85l-1.8 1.8 1.17 1.18 1.8-1.81a7.5 7.5 0 0 0 3.85 1.6v2.55h1.66v-2.55a7.4 7.4 0 0 0 3.85-1.6l1.8 1.8 1.18-1.17-1.81-1.8a7.5 7.5 0 0 0 1.6-3.85h2.55v-1.66h-2.55a7.4 7.4 0 0 0-1.6-3.84l1.8-1.81-1.17-1.18-1.8 1.81a7.5 7.5 0 0 0-3.85-1.6z"/></symbol><use xlink:href="#sprite-sun" width="20" height="20" y="144"/><view id="sprite-sun-view" viewBox="0 144 20 20"/><symbol id="sprite-tg" fill="none" viewBox="0 0 40 40"><path fill="#F0F0F0" d="M27 14.28c-.25 2.64-1.33 9.04-1.88 12-.23 1.25-.7 1.66-1.13 1.71-.96.09-1.7-.63-2.63-1.25-1.46-.96-2.29-1.56-3.7-2.5-1.65-1.08-.58-1.68.36-2.65.25-.25 4.5-4.14 4.59-4.49a.3.3 0 0 0-.08-.3c-.1-.08-.24-.05-.35-.03q-.22.04-7.01 4.65-1 .69-1.8.67c-.6-.02-1.72-.33-2.57-.62-1.05-.33-1.86-.51-1.8-1.1q.06-.45 1.23-.92 7.27-3.17 9.69-4.18c4.62-1.94 5.56-2.27 6.2-2.27.13 0 .44.03.64.2a.7.7 0 0 1 .23.45c-.01.1.02.4 0 .63"/></symbol><use xlink:href="#sprite-tg" width="40" height="40" y="164"/><view id="sprite-tg-view" viewBox="0 164 40 40"/><symbol id="sprite-view-cards-fill" fill="none" viewBox="0 0 20 20"><path fill="#FF4B41" d="M0 2a2 2 0 0 1 2-2h16a2 2 0 0 1 2 2v4.33a2 2 0 0 1-2 2h-16a2 2 0 0 1-2-2zm0 11.67a2 2 0 0 1 2-2h16a2 2 0 0 1 2 2v4.33a2 2 0 0 1-2 2h-16a2 2 0 0 1-2-2z"/></symbol><use xlink:href="#sprite-view-cards-fill" width="20" height="20" y="204"/><view id="sprite-view-cards-fill-view" viewBox="0 204 20 20"/><symbol id="sprite-view-cards" fill="none" viewBox="0 0 20 20"><rect width="17.489" height="5.846" x="1.255" y="1.252" rx=".76" ry=".76" style="stroke:#000;stroke-width:2.5;fill:transparent;paint-order:fill"/><rect width="17.489" height="5.846" x="1.255" y="12.897" rx=".76" ry=".76" style="stroke:#000;stroke-width:2.5;fill:transparent;paint-order:fill"/></symbol><use xlink:href="#sprite-view-cards" width="20" height="20" y="224"/><view id="sprite-view-cards-view" viewBox="0 224 20 20"/><symbol id="sprite-view-list-fill" fill="none" viewBox="0 0 24 24"><path fill="#202020" fill-rule="evenodd" d="M0 2a2 2 0 0 1 2-2h20a2 2 0 0 1 2 2v2a2 2 0 0 1-2 2h-20a2 2 0 0 1-2-2zm0 9a2 2 0 0 1 2-2h20a2 2 0 0 1 2 2v2a2 2 0 0 1-2 2h-20a2 2 0 0 1-2-2zm2 7a2 2 0 0 0-2 2v2a2 2 0 0 0 2 2h20a2 2 0 0 0 2-2v-2a2 2 0 0 0-2-2z" clip-rule="evenodd"/></symbol><use xlink:href="#sprite-view-list-fill" width="24" height="24" y="244"/><view id="sprite-view-list-fill-view" viewBox="0 244 24 24"/><symbol id="sprite-view-list" fill="none" viewBox="0 0 24 24"><path fill="#202020" fill-rule="evenodd" d="M22 2h-20v2h20zm0 9h-20v2h20zm0 9h-20v2h20zm-22-18a2 2 0 0 1 2-2h20a2 2 0 0 1 2 2v2a2 2 0 0 1-2 2h-20a2 2 0 0 1-2-2zm0 9a2 2 0 0 1 2-2h20a2 2 0 0 1 2 2v2a2 2 0 0 1-2 2h-20a2 2 0 0 1-2-2zm2 7a2 2 0 0 0-2 2v2a2 2 0 0 0 2 2h20a2 2 0 0 0 2-2v-2a2 2 0 0 0-2-2z" clip-rule="evenodd"/></symbol><use xlink:href="#sprite-view-list" width="24" height="24" y="268"/><view id="sprite-view-list-view" viewBox="0 268 24 24"/><symbol id="sprite-vk" fill="none" viewBox="0 0 40 40"><path fill="#F0F0F0" d="M20.98 27c-7.51 0-11.8-4.5-11.98-12h3.77c.12 5.5 2.9 7.83 5.1 8.31v-8.31h3.54v4.75c2.17-.2 4.45-2.37 5.22-4.75h3.55c-.6 2.93-3.07 5.1-4.83 5.98a10 10 0 0 1 5.65 6.02h-3.9a6.6 6.6 0 0 0-5.7-4.29v4.29z"/></symbol><use xlink:href="#sprite-vk" width="40" height="40" y="292"/><view id="sprite-vk-view" viewBox="0 292 40 40"/></svg>